<?xml version="1.0" standalone="no"?>
<!DOCTYPE svg PUBLIC "-//W3C//DTD SVG 20010904//EN"
 "http://www.w3.org/TR/2001/REC-SVG-20010904/DTD/svg10.dtd">
<svg version="1.0" xmlns="http://www.w3.org/2000/svg"
 width="256.000000pt" height="256.000000pt" viewBox="0 0 256.000000 256.000000"
 preserveAspectRatio="xMidYMid meet">

<g transform="translate(0.000000,256.000000) scale(0.100000,-0.100000)"
fill="#F17B70" stroke="none">
<path d="M1678 2411 c-32 -26 -16 -58 35 -71 82 -21 163 -53 214 -86 186 -119
289 -348 253 -563 -13 -80 -6 -101 36 -101 40 0 49 32 49 185 0 127 -3 147
-27 213 -82 227 -267 388 -496 431 -34 7 -47 5 -64 -8z"/>
<path d="M1643 2234 c-7 -3 -13 -19 -13 -35 0 -32 5 -35 101 -63 179 -51 295
-240 262 -423 -11 -59 -2 -83 31 -83 43 0 51 24 51 149 0 110 -2 120 -32 183
-43 90 -77 133 -146 184 -80 59 -213 105 -254 88z"/>
<path d="M1602 2048 c-16 -16 -15 -43 1 -56 6 -5 37 -17 68 -26 101 -29 158
-119 144 -230 -7 -56 7 -81 42 -74 31 6 44 47 40 128 -5 91 -28 141 -92 198
-67 59 -173 90 -203 60z"/>
<path d="M1166 1984 c-186 -45 -335 -208 -366 -400 -34 -210 83 -427 275 -510
l62 -27 54 -110 c81 -164 97 -164 178 0 l53 108 67 30 c137 62 246 210 271
369 32 203 -77 410 -265 502 -111 54 -213 66 -329 38z m287 -112 c83 -41 166
-129 198 -209 18 -46 23 -78 24 -154 0 -90 -2 -99 -37 -171 -47 -93 -104 -148
-204 -195 -74 -34 -75 -35 -111 -108 -21 -41 -40 -75 -43 -75 -3 0 -22 34 -43
75 l-36 74 -84 40 c-99 47 -154 102 -200 199 -29 61 -32 76 -32 162 1 120 25
187 97 265 92 101 176 136 314 132 79 -2 100 -7 157 -35z"/>
<path d="M1243 1720 c-25 -10 -31 -48 -11 -68 7 -7 28 -12 48 -12 76 0 139
-74 125 -146 -13 -74 -89 -122 -158 -103 -67 18 -101 79 -91 164 6 52 6 54
-21 61 -38 10 -57 -14 -63 -79 -5 -67 10 -118 51 -164 101 -115 277 -89 349
51 30 59 22 151 -18 208 -48 68 -153 112 -211 88z"/>
<path d="M598 1325 c-272 -75 -478 -206 -549 -350 -28 -58 -31 -71 -27 -137 5
-97 33 -152 123 -237 134 -127 373 -227 660 -275 165 -28 278 -37 480 -37 224
0 399 18 574 57 669 150 891 544 464 824 -109 72 -325 156 -454 176 -34 6 -40
4 -50 -20 -18 -38 0 -52 108 -81 260 -69 456 -191 514 -318 144 -319 -613
-617 -1391 -546 -554 50 -951 248 -950 473 1 146 221 308 532 391 49 13 96 29
104 36 29 24 9 70 -30 68 -12 0 -60 -11 -108 -24z"/>
</g>
</svg>
